<mxfile host="65bd71144e">
    <diagram id="tzcBCRBNblW6aHF2KwH6" name="Page-1">
        <mxGraphModel dx="932" dy="410" grid="1" gridSize="10" guides="1" tooltips="1" connect="1" arrows="1" fold="1" page="1" pageScale="1" pageWidth="850" pageHeight="1100" math="0" shadow="0">
            <root>
                <mxCell id="0"/>
                <mxCell id="1" parent="0"/>
                <mxCell id="69" value="&lt;font color=&quot;#1a1a1a&quot;&gt;&lt;b&gt;Data&lt;br&gt;&lt;br&gt;&lt;br&gt;&lt;br&gt;&lt;br&gt;&lt;br&gt;&lt;br&gt;&lt;br&gt;&lt;br&gt;&lt;br&gt;&lt;br&gt;&lt;br&gt;&lt;br&gt;&lt;br&gt;&lt;br&gt;&lt;br&gt;&lt;br&gt;&lt;br&gt;&lt;br&gt;&lt;br&gt;&lt;br&gt;&lt;br&gt;&lt;/b&gt;&lt;br&gt;&lt;/font&gt;" style="rounded=1;whiteSpace=wrap;html=1;fillColor=#FF9933;strokeColor=#b85450;rotation=-90;gradientColor=#ea6b66;" vertex="1" parent="1">
                    <mxGeometry x="334.35" y="250.00000000000006" width="64.03" height="340.74" as="geometry"/>
                </mxCell>
                <mxCell id="70" value="&lt;font color=&quot;#1a1a1a&quot;&gt;&lt;b&gt;Data Access Component&lt;br&gt;DAC&lt;/b&gt;&lt;br&gt;&lt;/font&gt;" style="rounded=1;whiteSpace=wrap;html=1;fillColor=#f9f7ed;strokeColor=#36393d;" vertex="1" parent="1">
                    <mxGeometry x="253.98999999999998" y="396.98" width="90" height="47" as="geometry"/>
                </mxCell>
                <mxCell id="71" value="&lt;font style=&quot;font-size: 18px;&quot; color=&quot;#e6e6e6&quot;&gt;&lt;b style=&quot;&quot;&gt;Arquitectura&amp;nbsp; Examen 2&lt;/b&gt;&lt;/font&gt;" style="text;html=1;strokeColor=none;fillColor=none;align=center;verticalAlign=middle;whiteSpace=wrap;rounded=0;labelBackgroundColor=none;fontColor=#333333;" vertex="1" parent="1">
                    <mxGeometry x="287.49" y="164.49" width="245" height="30" as="geometry"/>
                </mxCell>
                <mxCell id="72" value="&lt;font color=&quot;#1a1a1a&quot;&gt;&lt;b&gt;Data Helper&lt;br&gt;&lt;/b&gt;(DQLite)&lt;br&gt;&lt;/font&gt;" style="rounded=1;whiteSpace=wrap;html=1;fillColor=#f9f7ed;strokeColor=#36393d;" vertex="1" parent="1">
                    <mxGeometry x="415.23" y="396.98" width="92" height="47" as="geometry"/>
                </mxCell>
                <mxCell id="74" value="&lt;font color=&quot;#1a1a1a&quot;&gt;&lt;b&gt;Framework&lt;/b&gt;&lt;br&gt;&lt;br&gt;&lt;br&gt;&lt;br&gt;&lt;br&gt;&lt;br&gt;&lt;br&gt;&lt;br&gt;&lt;br&gt;&lt;br&gt;&lt;br&gt;&lt;br&gt;&lt;br&gt;&lt;br&gt;&lt;/font&gt;" style="rounded=1;whiteSpace=wrap;html=1;fillColor=#9999FF;strokeColor=#6c8ebf;gradientColor=#7ea6e0;" vertex="1" parent="1">
                    <mxGeometry x="550.23" y="216.49" width="125" height="258" as="geometry"/>
                </mxCell>
                <mxCell id="75" value="&lt;span style=&quot;&quot;&gt;&lt;font color=&quot;#000000&quot;&gt;&lt;b&gt;App &lt;br&gt;Excepcion&lt;/b&gt;&lt;/font&gt;&lt;/span&gt;" style="rounded=1;whiteSpace=wrap;html=1;fillColor=#f5f5f5;strokeColor=none;gradientColor=#b3b3b3;" vertex="1" parent="1">
                    <mxGeometry x="567.64" y="330" width="90.19" height="45.14" as="geometry"/>
                </mxCell>
                <mxCell id="76" value="&lt;span style=&quot;&quot;&gt;&lt;font color=&quot;#000000&quot;&gt;&lt;b&gt;App Configuration&lt;/b&gt;&lt;/font&gt;&lt;/span&gt;" style="rounded=1;whiteSpace=wrap;html=1;fillColor=#f5f5f5;strokeColor=none;gradientColor=#b3b3b3;" vertex="1" parent="1">
                    <mxGeometry x="567.64" y="280" width="90.19" height="42.2" as="geometry"/>
                </mxCell>
                <mxCell id="78" value="&lt;span style=&quot;&quot;&gt;&lt;font color=&quot;#000000&quot;&gt;&lt;b&gt;Config&lt;br&gt;Propierties&lt;/b&gt;&lt;/font&gt;&lt;/span&gt;" style="rounded=1;whiteSpace=wrap;html=1;fillColor=#f5f5f5;strokeColor=none;gradientColor=#b3b3b3;" vertex="1" parent="1">
                    <mxGeometry x="567.64" y="380" width="90.19" height="42.54" as="geometry"/>
                </mxCell>
                <mxCell id="80" value="&lt;font color=&quot;#1a1a1a&quot;&gt;&lt;b&gt;Businness&lt;br&gt;&lt;br&gt;&lt;br&gt;&lt;br&gt;&lt;br&gt;&lt;br&gt;&lt;br&gt;&lt;br&gt;&lt;br&gt;&lt;br&gt;&lt;br&gt;&lt;br&gt;&lt;br&gt;&lt;br&gt;&lt;br&gt;&lt;br&gt;&lt;br&gt;&lt;br&gt;&lt;br&gt;&lt;br&gt;&lt;br&gt;&lt;br&gt;&lt;/b&gt;&lt;br&gt;&lt;/font&gt;" style="rounded=1;whiteSpace=wrap;html=1;fillColor=#FFFF66;strokeColor=#82b366;rotation=-90;gradientColor=#97d077;" vertex="1" parent="1">
                    <mxGeometry x="332.72" y="175.12" width="66.78" height="340.74" as="geometry"/>
                </mxCell>
                <mxCell id="81" value="&lt;span style=&quot;color: rgb(26, 26, 26);&quot;&gt;&lt;b&gt;Business Logic&lt;/b&gt;&lt;/span&gt;" style="rounded=1;whiteSpace=wrap;html=1;fillColor=#f5f5f5;strokeColor=#666666;gradientColor=#b3b3b3;" vertex="1" parent="1">
                    <mxGeometry x="267.49" y="322.20000000000005" width="63" height="47" as="geometry"/>
                </mxCell>
                <mxCell id="82" value="&lt;font color=&quot;#1a1a1a&quot;&gt;Business Entities&lt;/font&gt;" style="rounded=1;whiteSpace=wrap;html=1;fillColor=#f5f5f5;strokeColor=#666666;gradientColor=#b3b3b3;" vertex="1" parent="1">
                    <mxGeometry x="435" y="321.99000000000007" width="63" height="47" as="geometry"/>
                </mxCell>
                <mxCell id="83" value="&lt;font color=&quot;#1a1a1a&quot;&gt;Business BL&lt;/font&gt;" style="rounded=1;whiteSpace=wrap;html=1;fillColor=#f5f5f5;strokeColor=#666666;gradientColor=#b3b3b3;" vertex="1" parent="1">
                    <mxGeometry x="343.23" y="322.20000000000005" width="72" height="47" as="geometry"/>
                </mxCell>
                <mxCell id="86" value="&lt;b style=&quot;&quot;&gt;&lt;font color=&quot;#4d4d4d&quot;&gt;Data&lt;br&gt;Sources&lt;br&gt;&lt;br&gt;&lt;br&gt;&lt;br&gt;&lt;br&gt;&lt;br&gt;&lt;br&gt;&lt;br&gt;&lt;br&gt;&lt;br&gt;&lt;/font&gt;&lt;br&gt;&lt;/b&gt;" style="rounded=1;whiteSpace=wrap;html=1;fillColor=none;strokeColor=#FF3333;rotation=-90;gradientColor=#ea6b66;" vertex="1" parent="1">
                    <mxGeometry x="245.53999999999996" y="413.16" width="86.37" height="182.83" as="geometry"/>
                </mxCell>
                <mxCell id="87" value="&lt;b style=&quot;&quot;&gt;&lt;font color=&quot;#4d4d4d&quot;&gt;Data&lt;br&gt;Service&lt;br&gt;&lt;br&gt;&lt;br&gt;&lt;br&gt;&lt;br&gt;&lt;/font&gt;&lt;br&gt;&lt;/b&gt;" style="rounded=1;whiteSpace=wrap;html=1;fillColor=none;strokeColor=#FF3333;rotation=-90;gradientColor=#ea6b66;" vertex="1" parent="1">
                    <mxGeometry x="423.23" y="430.74000000000007" width="86.37" height="147.68" as="geometry"/>
                </mxCell>
                <mxCell id="88" value="&lt;font color=&quot;#1a1a1a&quot;&gt;&lt;b&gt;User&lt;br&gt;Interface&lt;br&gt;&lt;br&gt;&lt;br&gt;&lt;br&gt;&lt;br&gt;&lt;br&gt;&lt;br&gt;&lt;br&gt;&lt;br&gt;&lt;br&gt;&lt;br&gt;&lt;br&gt;&lt;br&gt;&lt;br&gt;&lt;br&gt;&lt;br&gt;&lt;br&gt;&lt;br&gt;&lt;br&gt;&lt;br&gt;&lt;br&gt;&lt;/b&gt;&lt;br&gt;&lt;/font&gt;" style="rounded=1;whiteSpace=wrap;html=1;fillColor=#66B2FF;strokeColor=#36393d;rotation=-90;" vertex="1" parent="1">
                    <mxGeometry x="322.23" y="90" width="86.37" height="340.74" as="geometry"/>
                </mxCell>
                <mxCell id="90" value="&lt;span style=&quot;color: rgb(26, 26, 26);&quot;&gt;&lt;b&gt;UI Component&lt;br&gt;(sg_App)&lt;br&gt;&lt;/b&gt;&lt;/span&gt;" style="rounded=1;whiteSpace=wrap;html=1;fillColor=#f5f5f5;strokeColor=#666666;gradientColor=#b3b3b3;" vertex="1" parent="1">
                    <mxGeometry x="313.51" y="240" width="131.45" height="34.68" as="geometry"/>
                </mxCell>
                <mxCell id="93" value="&lt;b&gt;&lt;font color=&quot;#990000&quot;&gt;SQLITE&lt;/font&gt;&lt;/b&gt;" style="verticalLabelPosition=bottom;html=1;verticalAlign=top;align=center;strokeColor=#6F0000;fillColor=#a20025;shape=mxgraph.azure.sql_reporting;fontColor=#ffffff;" vertex="1" parent="1">
                    <mxGeometry x="248.53999999999996" y="476.34000000000003" width="38.95" height="46" as="geometry"/>
                </mxCell>
                <mxCell id="94" value="database" style="image;html=1;image=img/lib/clip_art/computers/Database_Minus_128x128.png;strokeColor=default;fontColor=#FFFFFF;fillColor=none;" vertex="1" parent="1">
                    <mxGeometry x="307.99" y="473.34000000000003" width="46.5" height="50" as="geometry"/>
                </mxCell>
                <mxCell id="95" value="" style="aspect=fixed;html=1;points=[];align=center;image;fontSize=12;image=img/lib/azure2/databases/Azure_SQL.svg;strokeColor=default;fontColor=#FFFFFF;fillColor=none;" vertex="1" parent="1">
                    <mxGeometry x="461.99" y="477.34000000000003" width="64" height="46" as="geometry"/>
                </mxCell>
                <mxCell id="96" style="edgeStyle=none;sketch=1;hachureGap=4;jiggle=2;curveFitting=1;html=1;exitX=0.25;exitY=1;exitDx=0;exitDy=0;entryX=0.367;entryY=1.027;entryDx=0;entryDy=0;entryPerimeter=0;fontFamily=Architects Daughter;fontSource=https%3A%2F%2Ffonts.googleapis.com%2Fcss%3Ffamily%3DArchitects%2BDaughter;fontSize=16;" edge="1" parent="1" source="78" target="78">
                    <mxGeometry relative="1" as="geometry"/>
                </mxCell>
            </root>
        </mxGraphModel>
    </diagram>
</mxfile>